# xmcd CD database file
#
# Track frame offsets:
#	150
#	8695
#	23261
#	43314
#	54779
#	67620
#	77788
#	86070
#	100532
#	113028
#	122926
#	134330
#	145736
#	157331
#	173553
#	183597
#	198295
#	217029
#	229787
#	240277
#
# Disc length: 3486 seconds
#
# Revision: 0
# Processed by: cddbd v1.5.1PL0 Copyright (c) Steve Scherf et al.
# Submitted via: CDex 1.51
#
DISCID=fd0d9c14
DTITLE=Keith Cooper, Diz Disley, Clive the Jive and Roger Limb - Together Again (for the first time) Volume 1
DYEAR=2000
DGENRE=Jazz
TTITLE0=There Be Some Changes Made
TTITLE1=Lucia
TTITLE2=Stardust
TTITLE3=Sweet Lorraine
TTITLE4=Love Will Come
TTITLE5=Let's Get Lost
TTITLE6=Tina Never Knew
TTITLE7=I Tell My Heart
TTITLE8=Exactly Like You
TTITLE9=Body and Soul
TTITLE10=Them There Eyes
TTITLE11=Embraceable You
TTITLE12=Satin Doll
TTITLE13=Night and Day
TTITLE14=Memories of You
TTITLE15=Melancholy Baby
TTITLE16=Time Alone Will Tell
TTITLE17=I Remember
TTITLE18=Canvas of Dawn
TTITLE19=Coopers' Blues
EXTD=YEAR: 2000
EXTT0=
EXTT1=
EXTT2=
EXTT3=
EXTT4=
EXTT5=
EXTT6=
EXTT7=
EXTT8=
EXTT9=
EXTT10=
EXTT11=
EXTT12=
EXTT13=
EXTT14=
EXTT15=
EXTT16=
EXTT17=
EXTT18=
EXTT19=
PLAYORDER=
